<mxfile host="app.diagrams.net" modified="2024-02-17T06:10:04.240Z" agent="Mozilla/5.0 (Macintosh; Intel Mac OS X 10_15_7) AppleWebKit/537.36 (KHTML, like Gecko) Chrome/121.0.0.0 Safari/537.36" etag="d2S7uvwmlHypB4DiKcu5" version="22.1.21" type="github">
  <diagram name="第 1 页" id="RGslROFTi9MQfx-MJA75">
    <mxGraphModel dx="2074" dy="1066" grid="1" gridSize="10" guides="1" tooltips="1" connect="1" arrows="1" fold="1" page="1" pageScale="1" pageWidth="1500" pageHeight="1800" math="0" shadow="0">
      <root>
        <mxCell id="0" />
        <mxCell id="1" parent="0" />
      </root>
    </mxGraphModel>
  </diagram>
</mxfile>
